<svg version="1.1" id="Layer_1" xmlns="http://www.w3.org/2000/svg" xmlns:xlink="http://www.w3.org/1999/xlink" x="0px" y="0px"
	 width="100%" viewBox="0 0 500 500" enable-background="new 0 0 500 500" xml:space="preserve">
<path fill="#000000" opacity="1.000000" stroke="none" 
	d="
M225.000000,501.000000 
	C150.000015,501.000000 75.500038,501.000000 1.000040,501.000000 
	C1.000027,334.333405 1.000027,167.666779 1.000013,1.000129 
	C167.666565,1.000086 334.333130,1.000086 500.999756,1.000043 
	C500.999847,167.666534 500.999847,334.333069 500.999939,500.999817 
	C409.166656,501.000000 317.333344,501.000000 225.000000,501.000000 
M246.973297,291.434967 
	C246.653946,291.242920 246.334610,291.050903 246.043488,290.952850 
	C246.043488,290.952850 246.135788,290.919556 245.853760,290.248199 
	C240.731583,285.954193 234.666382,285.896790 228.386719,285.871216 
	C223.847427,285.852753 220.589798,287.341736 217.497513,291.270264 
	C214.517548,294.460754 211.258484,297.442139 208.655823,300.915405 
	C206.922775,303.228149 206.126236,306.242645 204.184875,308.983429 
	C203.195175,308.550690 201.912262,308.377350 201.262909,307.643463 
	C196.717819,302.506775 192.303665,297.254211 188.007355,291.321960 
	C191.791321,286.374023 195.687057,281.333862 193.926575,274.580475 
	C192.643356,269.657928 190.852310,264.847504 188.979263,260.109009 
	C188.239365,258.237213 186.977646,255.734650 185.398148,255.218369 
	C182.698685,254.335953 179.385895,254.349243 178.040833,258.019562 
	C178.040833,258.019562 178.069580,257.897156 177.400040,258.126495 
	C176.611603,258.410583 175.823166,258.694672 174.531647,259.327728 
	C174.303024,259.662567 174.074417,259.997437 173.077744,260.147034 
	C171.051605,260.764282 169.025452,261.381531 166.363266,262.249725 
	C165.196533,262.888641 164.029800,263.527588 162.009491,264.154785 
	C158.134430,263.425812 154.890320,264.209839 152.178360,268.098236 
	C148.013138,269.432037 148.733490,271.934845 150.456223,274.973297 
	C151.068405,273.272949 151.582764,271.844299 152.097137,270.415680 
	C152.564423,270.389709 153.031723,270.363708 153.499023,270.337738 
	C154.001694,272.029907 154.820099,273.698975 154.945847,275.418732 
	C155.279083,279.976074 157.193008,282.515747 162.001740,281.964508 
	C162.001740,281.964508 162.071472,281.908691 162.076431,282.511078 
	C162.387527,283.002563 162.698624,283.494080 163.001221,283.998108 
	C163.001221,283.998108 163.014282,283.994812 162.978531,284.785492 
	C162.954361,288.386230 164.047958,290.495758 168.777588,288.633301 
	C169.431610,288.597015 170.085648,288.560730 171.178467,289.078217 
	C174.817429,289.642609 178.631973,289.918701 179.593369,293.180176 
	C177.439117,295.217041 174.032837,297.428741 174.348999,298.320190 
	C175.485062,301.523346 177.878662,304.280457 179.834351,307.263153 
	C181.637848,305.863831 182.704147,305.036469 184.521225,303.626556 
	C185.100784,306.929657 185.544983,309.461273 185.666519,312.224670 
	C185.606842,312.469666 185.547150,312.714630 185.487457,312.959625 
	C185.662170,312.643829 185.836884,312.328003 186.795563,312.001587 
	C188.810333,313.045868 190.825119,314.090179 192.839890,315.134460 
	C192.602188,315.643921 192.364502,316.153381 192.126816,316.662811 
	C190.927002,316.472778 189.727188,316.282776 187.134506,315.872131 
	C191.845139,319.834229 195.174149,323.250427 199.071259,325.797333 
	C211.088806,333.651398 224.450027,338.224670 238.551056,340.529816 
	C240.341705,340.822571 242.490494,339.424011 244.360962,338.564453 
	C245.753143,337.924713 246.963638,336.889587 248.319077,335.987976 
	C247.325455,335.230377 246.527100,334.621674 245.410660,333.770447 
	C248.668411,333.092072 251.333511,332.537079 254.655472,331.675934 
	C255.843811,331.655762 257.032135,331.635559 258.951721,331.782043 
	C259.633026,331.548981 260.314331,331.315918 261.611603,330.820953 
	C262.053406,330.800140 262.495209,330.779327 262.967407,331.576050 
	C262.290283,333.243988 262.051239,335.436646 260.831665,336.454895 
	C259.074432,337.921997 256.604767,338.535767 254.439117,339.513672 
	C254.640015,340.100891 254.840912,340.688080 255.041824,341.275269 
	C260.785248,339.998322 266.525024,338.704712 272.273346,337.450287 
	C276.090973,336.617188 279.722778,335.674011 278.557800,330.119904 
	C279.432434,331.334412 280.307037,332.548920 281.611786,334.360748 
	C288.687744,330.161621 295.801239,326.198822 302.614136,321.773254 
	C305.446350,319.933502 307.637054,317.106171 310.809326,314.810059 
	C311.231049,314.210327 311.652802,313.610565 312.006561,313.007599 
	C312.006561,313.007599 312.012299,313.075378 312.724884,312.979065 
	C317.240143,307.797241 321.755432,302.615417 326.270721,297.433624 
	C325.842529,297.311310 325.414368,297.188965 325.018433,296.311493 
	C325.635834,294.173798 326.253265,292.036102 326.922424,289.719238 
	C321.286804,290.412781 316.321655,290.388428 313.249390,295.046661 
	C311.260712,298.061890 309.455597,301.330627 306.918121,303.824188 
	C301.424072,309.223083 295.512299,314.196838 288.988922,319.247253 
	C287.906952,319.386475 286.784973,319.387421 285.749420,319.687042 
	C278.443634,321.801056 271.155640,323.976471 263.031128,326.024719 
	C258.082001,326.452728 253.132843,326.880737 247.248505,327.389618 
	C248.695541,322.800323 249.772461,319.384888 251.173187,315.285858 
	C256.008240,307.590363 254.658752,302.252533 248.043457,292.955719 
	C248.043457,292.955719 248.142044,292.987732 247.964569,292.441589 
	C247.644440,292.255341 247.324295,292.069092 247.015335,292.000549 
	C247.015335,292.000549 247.132950,291.988556 246.973297,291.434967 
M171.963486,200.433456 
	C171.648682,200.260101 171.333862,200.086746 171.043839,199.978119 
	C171.043839,199.978119 171.087921,199.924652 170.665970,199.148285 
	C162.428925,199.141647 154.191879,199.135025 145.250839,198.673645 
	C145.112610,196.135971 144.974396,193.598312 145.794250,191.053009 
	C152.523422,191.047577 159.255035,191.147461 165.980759,190.992355 
	C169.352280,190.914597 172.713074,190.372299 176.568344,189.378494 
	C176.873886,188.616318 177.179428,187.854156 178.009171,187.544373 
	C180.333511,187.290222 182.555771,186.899139 182.983612,183.017746 
	C182.991898,179.690140 183.160416,176.352982 182.962891,173.037643 
	C182.769501,169.791885 181.198181,167.030289 177.681213,166.998352 
	C161.541855,166.851776 145.389908,166.667801 129.268692,167.238434 
	C126.305092,167.343338 120.769333,165.937225 119.526360,172.282532 
	C118.945877,172.912384 118.365395,173.542236 117.370209,174.843246 
	C117.357468,188.265488 117.295914,201.687912 117.347557,215.109909 
	C117.388298,225.698166 117.568367,236.285858 118.274597,247.304169 
	C119.408195,246.973007 120.541801,246.641846 121.675407,246.310699 
	C120.446838,245.529602 119.218269,244.748489 117.761185,243.057343 
	C117.832878,221.045074 117.904572,199.032806 118.785942,177.018784 
	C121.391670,177.052200 124.062172,176.756424 126.577141,177.251175 
	C127.933098,177.517929 129.681915,178.935089 130.070602,180.197433 
	C130.589935,181.884155 129.945038,183.923584 129.827972,185.813248 
	C129.591171,189.635529 128.900604,193.512405 129.324646,197.261871 
	C129.578812,199.509354 131.586853,201.558517 132.806610,203.696823 
	C132.617645,203.748627 132.428696,203.800430 132.239731,203.852234 
	C134.363983,205.834518 136.488220,207.816788 138.612473,209.799072 
	C129.718781,207.691620 131.492523,216.053726 128.155350,218.784134 
	C128.327164,219.294525 128.498962,219.804901 128.670776,220.315292 
	C131.219299,219.841858 133.767822,219.368439 135.998062,218.954147 
	C135.998062,224.360825 136.221344,229.884140 135.860886,235.369095 
	C135.753876,236.997299 133.930573,238.476059 133.028732,240.098343 
	C131.988037,241.970367 131.096695,243.925430 130.140488,245.844437 
	C131.756302,246.561493 133.320312,247.637253 135.004562,247.880463 
	C136.317520,248.070053 137.779999,247.224228 139.745697,247.002426 
	C141.509384,245.318008 144.618423,243.760788 144.791901,241.925995 
	C145.381409,235.691376 144.934204,229.358734 145.834305,223.032440 
	C151.604691,223.019577 157.375061,223.001541 163.145447,222.995895 
	C166.343018,222.992767 168.542969,221.758026 169.794281,218.052673 
	C170.873184,216.558578 172.643387,215.166779 172.882812,213.548477 
	C173.339539,210.461563 172.923279,207.245468 173.017273,203.360703 
	C172.704391,202.544205 172.391495,201.727707 172.023331,200.952637 
	C172.023331,200.952637 172.086273,200.981094 171.963486,200.433456 
M303.944305,194.451523 
	C303.630859,194.254837 303.317413,194.058151 303.017853,193.964752 
	C303.017853,193.964752 303.120636,193.947556 302.833923,193.302917 
	C298.243164,191.162613 293.652374,189.022324 289.030029,186.952515 
	C289.030029,186.952515 289.105347,186.935410 288.916016,186.429001 
	C288.567535,186.600708 288.219055,186.772400 287.380402,186.991577 
	C287.380402,186.991577 286.913025,187.146729 286.515411,187.030243 
	C286.515411,187.030243 286.118927,187.150574 285.189331,187.002625 
	C281.151489,186.948242 277.113647,186.893860 272.715759,186.237305 
	C269.818298,187.757660 266.833344,189.137787 264.064880,190.864929 
	C262.899719,191.591797 262.191711,193.051514 261.237793,194.723038 
	C260.537720,194.758682 259.837616,194.794312 259.137543,194.829956 
	C259.190277,194.537659 259.270447,193.988129 259.291809,193.990417 
	C259.937012,194.059174 260.576416,194.182358 261.594879,193.535767 
	C262.353333,192.982697 263.064667,192.039169 263.878082,191.940964 
	C268.581146,191.373154 273.308258,191.004822 278.673889,190.785110 
	C279.124512,190.760788 279.575165,190.736481 280.757507,190.947433 
	C296.457336,192.694229 304.160767,199.970612 307.994507,217.671783 
	C307.548126,222.719299 307.101715,227.766800 306.655334,232.814316 
	C307.228058,232.994873 307.800812,233.175446 308.373566,233.356003 
	C309.723816,230.274551 311.777252,227.305481 312.291168,224.090332 
	C313.774048,214.813416 313.922180,205.583450 307.052002,197.955353 
	C307.052002,197.955353 307.129639,197.953125 307.034576,197.241272 
	C306.036835,196.454926 305.039062,195.668594 304.024048,194.977936 
	C304.024048,194.977936 304.120209,194.992386 303.944305,194.451523 
M340.132935,285.244202 
	C339.818390,286.340393 339.503845,287.436554 339.204987,288.847534 
	C339.204987,288.847534 338.925659,288.993561 338.213318,289.127014 
	C336.554474,289.820465 334.668427,290.225891 333.308685,291.298492 
	C332.220490,292.156921 331.772003,293.826355 331.039612,295.135834 
	C331.540955,295.470001 332.042267,295.804169 332.543610,296.138336 
	C334.710571,294.743073 336.877563,293.347839 339.703156,291.747040 
	C341.520233,289.529053 343.337311,287.311066 345.078491,285.058685 
	C345.078491,285.058685 345.095703,285.140198 345.766602,284.847107 
	C347.839539,278.885284 350.408752,273.039062 351.833038,266.926086 
	C353.035706,261.764282 348.685150,254.929932 344.034210,252.243729 
	C339.682892,247.847824 330.358612,247.732666 325.212219,251.992554 
	C323.802673,252.697800 322.393158,253.403061 320.983612,254.108307 
	C321.210022,254.635834 321.436401,255.163361 321.662811,255.690903 
	C324.446442,254.866241 327.230072,254.041580 330.706573,253.113464 
	C331.156860,253.220505 331.607147,253.327545 332.417389,253.714966 
	C332.696228,253.863144 332.992096,253.915833 333.691284,253.810898 
	C333.691284,253.810898 333.997070,254.055023 334.255707,254.752762 
	C335.374756,255.084915 336.493805,255.417068 337.902832,255.759552 
	C337.902832,255.759552 338.005768,256.030792 337.994415,256.847992 
	C339.233673,259.993988 340.472931,263.139954 341.588287,265.971466 
	C340.363068,267.527100 337.553650,269.524628 337.756836,271.144257 
	C338.269379,275.229980 340.138702,279.145508 341.365143,283.785797 
	C341.308441,284.218353 341.251740,284.650909 340.990997,285.060242 
	C340.990997,285.060242 340.800385,284.983521 340.132935,285.244202 
M154.974106,284.602966 
	C154.830429,284.409668 154.686752,284.216339 154.543076,284.023041 
	C154.499344,284.137695 154.384750,284.302551 154.424225,284.358215 
	C154.589279,284.591095 154.800568,284.791138 155.023056,285.747375 
	C156.349487,288.473267 157.675934,291.199188 159.002365,293.925079 
	C159.466965,293.665100 159.931564,293.405121 160.396164,293.145172 
	C159.069916,290.142181 160.076324,285.722198 154.974106,284.602966 
M271.763702,209.612228 
	C269.862488,211.664307 267.961304,213.716370 265.766479,216.387772 
	C264.490967,222.014084 265.301697,227.183701 270.224762,230.666702 
	C274.845001,233.935440 279.738678,233.649139 283.854218,229.978928 
	C276.110077,228.383667 269.823181,224.954346 271.016693,214.201355 
	C271.441833,212.417648 271.867004,210.633942 272.170746,209.066910 
	C272.170746,209.066910 272.102753,208.839661 272.102753,208.839661 
	C272.102753,208.839661 272.256897,209.025894 271.763702,209.612228 
M362.258026,166.944290 
	C362.789856,166.993317 363.321686,167.042328 364.575623,167.255402 
	C366.386932,167.021378 368.206451,166.837631 370.008148,166.544479 
	C377.006378,165.405792 377.258728,165.603729 377.258331,172.891907 
	C377.257416,190.832687 377.010345,208.777985 377.359619,226.711792 
	C377.483002,233.045258 379.050293,239.350586 380.056671,246.352997 
	C382.728638,244.745377 384.470764,243.697189 385.834961,242.876389 
	C384.799164,237.257248 383.867065,232.200806 383.055267,226.183487 
	C383.062653,208.228455 383.094604,190.273315 383.032959,172.318527 
	C383.027771,170.809418 382.393860,169.302475 382.043518,166.927505 
	C382.043518,165.382019 382.043518,163.836533 382.043518,162.129990 
	C379.405243,162.129990 377.197601,162.129990 374.129608,162.001999 
	C370.550903,162.333328 366.944702,162.509415 363.418091,163.134598 
	C362.758850,163.251480 362.418640,165.167999 361.958740,167.069534 
	C360.787567,167.798401 359.616364,168.527267 358.445190,169.256134 
	C358.243988,168.833221 358.042786,168.410309 357.841614,167.987396 
	C359.186768,167.389267 360.531952,166.791122 362.258026,166.944290 
M232.951111,239.979553 
	C232.951111,239.979553 233.202484,239.679825 233.639389,239.171066 
	C239.330215,236.134537 241.155777,230.592804 243.025314,224.132080 
	C243.357071,220.410355 244.390121,216.588379 243.875381,212.987671 
	C242.786102,205.368073 240.784256,198.078033 233.802597,193.135727 
	C227.178009,188.446167 220.232742,185.901169 212.049591,186.940186 
	C208.059067,187.446869 204.012970,187.515854 199.231842,187.943069 
	C196.172089,189.961304 193.112335,191.979538 189.582703,194.476257 
	C180.331726,201.001404 175.843658,209.078857 178.271057,216.138428 
	C181.126053,212.876633 185.078339,211.182541 183.887924,205.685120 
	C183.640381,204.541855 186.881683,202.195602 188.909790,201.252350 
	C189.609711,200.926834 192.790817,203.938889 192.670013,204.143005 
	C190.559311,207.709534 192.265152,210.590454 193.537750,213.841446 
	C194.096817,215.269669 192.581512,217.416687 192.325241,219.280930 
	C192.007736,221.590652 191.041946,224.566010 192.061081,226.171799 
	C196.103378,232.540970 190.625992,237.615280 191.422134,244.069824 
	C188.430084,242.314880 186.502991,241.184570 184.575912,240.054276 
	C185.018036,239.784775 185.460175,239.515274 185.902298,239.245773 
	C183.638962,235.174973 181.375626,231.104172 178.854599,226.569901 
	C174.368896,234.908157 189.275177,249.766312 202.023178,248.836014 
	C200.302048,246.620148 199.363968,244.653549 197.810318,243.567703 
	C194.417435,241.196442 194.287415,241.018982 197.837234,238.436096 
	C201.457169,242.977737 201.457169,242.977737 205.501755,237.452057 
	C213.170792,243.006546 218.217026,237.881760 223.803558,232.787811 
	C222.705429,236.916718 221.534851,241.165924 218.757294,243.065826 
	C214.413879,246.036789 208.982941,247.417862 203.747589,249.582062 
	C210.439453,252.699417 225.608917,247.564163 231.518112,240.103012 
	C231.899643,240.149948 232.281174,240.196869 232.951111,239.979553 
M353.822418,195.424271 
	C354.473389,195.820358 355.124390,196.216461 355.964630,196.727707 
	C358.019928,189.790268 350.844757,182.909424 356.081848,176.483566 
	C356.626526,176.475067 357.171204,176.466568 357.715881,176.458069 
	C357.715881,180.360931 357.715881,184.263794 357.715881,188.145172 
	C355.630554,188.145172 353.827271,188.145172 351.605804,187.988480 
	C351.605804,187.988480 351.160675,187.952240 350.746735,187.249771 
	C343.654266,184.358047 329.808563,185.578659 328.299377,192.456589 
	C332.429413,191.836868 336.676666,191.199570 341.676819,190.832199 
	C345.644165,192.184326 349.611542,193.536438 353.822418,195.424271 
M355.917542,227.795898 
	C352.265045,227.513794 348.084595,228.269669 345.068878,226.735687 
	C338.588104,223.439178 341.951385,216.264725 340.631470,210.815979 
	C335.777618,212.990143 333.928040,217.177338 334.848663,223.296799 
	C335.618195,228.411743 338.730652,231.740967 343.339478,232.316498 
	C348.740082,232.990921 353.117310,231.235565 356.258362,227.007202 
	C356.258362,227.007202 356.087585,226.846771 356.087585,226.846771 
	C356.087585,226.846771 356.321625,226.941345 355.917542,227.795898 
M316.888702,262.268036 
	C317.605316,260.579407 318.321960,258.890778 319.038574,257.202148 
	C318.699677,256.990753 318.360809,256.779388 318.021912,256.567993 
	C316.743195,257.919037 315.464508,259.270111 314.185791,260.621155 
	C314.897430,261.287140 315.609100,261.953094 316.888702,262.268036 
M165.725510,294.600555 
	C164.859955,294.235199 163.994385,293.869873 163.128830,293.504547 
	C163.070602,294.137909 163.012390,294.771271 162.954178,295.404633 
	C163.972443,295.306458 164.990723,295.208282 165.725510,294.600555 
M132.027542,225.710648 
	C132.231094,224.995575 132.434631,224.280487 132.638184,223.565414 
	C132.030731,223.553146 131.423279,223.540863 130.815826,223.528580 
	C131.018372,224.262726 131.220917,224.996887 132.027542,225.710648 
M153.349884,280.883820 
	C153.410751,280.851135 153.471634,280.818451 153.349884,280.883820 
M182.481140,310.272797 
	C182.417572,310.216553 182.353989,310.160339 182.481140,310.272797 
M329.304443,297.125397 
	C329.408600,297.033264 329.512756,296.941162 329.616913,296.849030 
	C329.512543,296.863373 329.408173,296.877716 329.304443,297.125397 
z"/>
<path fill="#050403" opacity="1.000000" stroke="none" 
	d="
M231.400696,240.529999 
	C225.608917,247.564163 210.439453,252.699417 203.747589,249.582062 
	C208.982941,247.417862 214.413879,246.036789 218.757294,243.065826 
	C221.534851,241.165924 222.705429,236.916718 223.803558,232.787811 
	C218.217026,237.881760 213.170792,243.006546 205.501755,237.452057 
	C201.457169,242.977737 201.457169,242.977737 197.837234,238.436096 
	C194.287415,241.018982 194.417435,241.196442 197.810318,243.567703 
	C199.363968,244.653549 200.302048,246.620148 202.023178,248.836014 
	C189.275177,249.766312 174.368896,234.908157 178.854599,226.569901 
	C181.375626,231.104172 183.638962,235.174973 185.902298,239.245773 
	C185.460175,239.515274 185.018036,239.784775 184.575912,240.054276 
	C186.502991,241.184570 188.430084,242.314880 191.422134,244.069824 
	C190.625992,237.615280 196.103378,232.540970 192.061081,226.171799 
	C191.041946,224.566010 192.007736,221.590652 192.325241,219.280930 
	C192.581512,217.416687 194.096817,215.269669 193.537750,213.841446 
	C192.265152,210.590454 190.559311,207.709534 192.670013,204.143005 
	C192.790817,203.938889 189.609711,200.926834 188.909790,201.252350 
	C186.881683,202.195602 183.640381,204.541855 183.887924,205.685120 
	C185.078339,211.182541 181.126053,212.876633 178.271057,216.138428 
	C175.843658,209.078857 180.331726,201.001404 190.184738,194.261627 
	C193.240372,193.195312 195.693985,192.343613 198.609085,191.505920 
	C203.184799,191.317551 207.323929,190.722794 211.408829,190.982147 
	C227.306046,191.991379 237.905731,202.989380 238.635300,218.905045 
	C238.732712,221.030380 238.737625,223.159958 238.538116,225.591125 
	C236.594711,230.489716 234.898590,235.084778 233.202484,239.679825 
	C233.202484,239.679825 232.951111,239.979553 232.772003,240.348892 
	C232.195511,240.655487 231.798096,240.592743 231.400696,240.529999 
M195.962616,218.785995 
	C196.476166,221.523941 196.433960,224.532562 197.610306,226.947678 
	C200.792862,233.481812 209.466583,234.696259 213.927979,229.549377 
	C203.864975,228.102600 199.271072,221.200119 201.564804,209.949524 
	C201.118713,209.733017 200.672623,209.516525 200.226532,209.300018 
	C198.828400,212.180801 197.430283,215.061569 195.962616,218.785995 
z"/>
<path fill="#0F0A06" opacity="1.000000" stroke="none" 
	d="
M253.998611,331.982117 
	C251.333511,332.537079 248.668411,333.092072 245.410660,333.770447 
	C246.527100,334.621674 247.325455,335.230377 248.319077,335.987976 
	C246.963638,336.889587 245.753143,337.924713 244.360962,338.564453 
	C242.490494,339.424011 240.341705,340.822571 238.551056,340.529816 
	C224.450027,338.224670 211.088806,333.651398 199.071259,325.797333 
	C195.174149,323.250427 191.845139,319.834229 187.134506,315.872131 
	C189.727188,316.282776 190.927002,316.472778 192.126816,316.662811 
	C192.364502,316.153381 192.602188,315.643921 192.839890,315.134460 
	C190.825119,314.090179 188.810333,313.045868 186.398163,312.001190 
	C186.000778,312.000793 185.989182,311.992920 185.989197,311.992920 
	C185.544983,309.461273 185.100784,306.929657 184.521225,303.626556 
	C182.704147,305.036469 181.637848,305.863831 179.834351,307.263153 
	C177.878662,304.280457 175.485062,301.523346 174.348999,298.320190 
	C174.032837,297.428741 177.439117,295.217041 179.593369,293.180176 
	C178.631973,289.918701 174.817429,289.642609 170.791931,288.517883 
	C167.847885,281.651855 165.182892,275.385986 162.816177,269.009460 
	C162.291443,267.595734 162.819672,265.791138 162.863068,264.166534 
	C164.029800,263.527588 165.196533,262.888641 167.055420,262.156860 
	C168.649811,263.523438 169.741226,264.900238 170.420639,266.456909 
	C172.987000,272.337097 175.419556,278.275665 177.902176,284.192383 
	C178.508926,284.096741 179.115677,284.001099 179.722412,283.905457 
	C179.529678,281.369141 179.734940,278.721527 179.063293,276.319092 
	C177.555359,270.925507 175.611954,265.653687 173.845825,260.332275 
	C174.074417,259.997437 174.303024,259.662567 175.161926,259.201233 
	C176.551331,258.682220 177.310455,258.289703 178.069580,257.897156 
	C178.069580,257.897156 178.040833,258.019562 178.212341,258.309326 
	C179.122711,258.436188 179.861572,258.273285 180.782593,258.436157 
	C183.916550,266.727570 188.711853,274.145905 188.057220,283.466553 
	C186.823441,286.155365 185.733841,288.516937 184.352753,291.045135 
	C183.607590,292.711609 182.295273,294.717499 182.834366,295.632233 
	C187.713882,303.911987 194.023346,310.943970 202.573914,316.973572 
	C203.481583,313.854095 204.196045,311.398560 204.910522,308.943054 
	C206.126236,306.242645 206.922775,303.228149 208.655823,300.915405 
	C211.258484,297.442139 214.517548,294.460754 218.204071,291.081116 
	C221.904602,290.404480 224.898575,289.916992 228.277100,289.589294 
	C242.746201,291.914581 249.870148,302.791565 245.962936,316.496674 
	C244.541977,321.480957 242.583282,326.311951 240.601013,331.982117 
	C245.710831,331.982117 249.854721,331.982117 253.998611,331.982117 
M227.891647,297.724976 
	C224.092865,295.372223 218.375610,297.252747 215.485458,302.662628 
	C212.843781,307.607452 210.865036,312.961670 209.099442,318.302521 
	C207.565140,322.943756 212.231750,322.967041 214.639557,324.401550 
	C217.225555,325.942169 218.507599,324.227814 219.356628,321.865631 
	C222.162247,314.059967 225.044022,306.281647 227.891647,297.724976 
M234.245270,328.996033 
	C236.303268,323.584351 238.685257,318.268799 240.326859,312.733643 
	C241.922562,307.353241 239.776031,302.810608 235.106796,300.077576 
	C234.717026,300.536102 234.130310,300.956268 233.916718,301.518280 
	C230.913712,309.419830 227.866119,317.308044 225.126877,325.301453 
	C224.811554,326.221619 226.025543,328.525787 226.979401,328.844452 
	C229.058228,329.538940 231.426514,329.366974 234.245270,328.996033 
z"/>
<path fill="#020201" opacity="1.000000" stroke="none" 
	d="
M117.784920,174.172089 
	C118.365395,173.542236 118.945877,172.912384 120.201889,172.268158 
	C138.190048,172.358154 155.502686,172.462540 173.181763,172.696075 
	C175.965439,172.683380 177.159042,173.659317 177.145966,176.244171 
	C177.127655,179.859436 177.359924,183.475983 177.484985,187.091980 
	C177.179428,187.854156 176.873886,188.616318 175.846924,189.684784 
	C170.992294,189.984421 166.857086,189.892471 162.726334,189.989914 
	C155.492523,190.160553 148.261444,190.447433 140.649017,190.931000 
	C140.268829,195.387482 140.268829,199.598572 140.268829,204.011551 
	C148.185226,204.011551 155.642883,204.149399 163.091522,203.950226 
	C166.533371,203.858200 167.781830,205.022568 167.792923,208.498444 
	C167.803391,211.776337 168.568573,215.051849 169.001755,218.328400 
	C168.542969,221.758026 166.343018,222.992767 163.145447,222.995895 
	C157.375061,223.001541 151.604691,223.019577 144.987427,222.912659 
	C142.856796,222.550140 141.573044,222.307419 139.936508,221.998001 
	C139.936508,224.890320 140.002548,227.032761 139.923874,229.169907 
	C139.706985,235.060638 139.429535,240.949142 139.176041,246.838531 
	C137.779999,247.224228 136.317520,248.070053 135.004562,247.880463 
	C133.320312,247.637253 131.756302,246.561493 130.140503,245.844437 
	C131.096695,243.925430 131.988037,241.970367 133.028732,240.098343 
	C133.930573,238.476059 135.753876,236.997299 135.860886,235.369095 
	C136.221344,229.884140 135.998062,224.360825 135.998062,218.954147 
	C133.767822,219.368439 131.219299,219.841858 128.670776,220.315292 
	C128.498962,219.804901 128.327164,219.294525 128.155350,218.784134 
	C131.492523,216.053726 129.718781,207.691620 138.612473,209.799072 
	C136.488220,207.816788 134.363983,205.834518 132.239731,203.852234 
	C132.428696,203.800430 132.617645,203.748627 132.806610,203.696823 
	C131.586853,201.558517 129.578812,199.509354 129.324646,197.261871 
	C128.900604,193.512405 129.591171,189.635529 129.827972,185.813248 
	C129.945038,183.923584 130.589935,181.884155 130.070602,180.197433 
	C129.681915,178.935089 127.933098,177.517929 126.577141,177.251175 
	C124.062172,176.756424 121.391670,177.052200 118.282028,176.673126 
	C117.780380,175.609024 117.782654,174.890549 117.784920,174.172089 
z"/>
<path fill="#0F0A06" opacity="1.000000" stroke="none" 
	d="
M310.119476,314.727936 
	C307.637054,317.106171 305.446350,319.933502 302.614136,321.773254 
	C295.801239,326.198822 288.687744,330.161621 281.611786,334.360748 
	C280.307037,332.548920 279.432434,331.334412 278.557800,330.119904 
	C279.722778,335.674011 276.090973,336.617188 272.273346,337.450287 
	C266.525024,338.704712 260.785248,339.998322 255.041824,341.275269 
	C254.840912,340.688080 254.640015,340.100891 254.439117,339.513672 
	C256.604767,338.535767 259.074432,337.921997 260.831665,336.454895 
	C262.051239,335.436646 262.290283,333.243988 263.195496,330.950073 
	C264.638214,329.932526 265.852844,329.540924 267.462891,329.156799 
	C275.162659,325.890991 282.467010,322.617737 289.771362,319.344482 
	C295.512299,314.196838 301.424072,309.223083 306.918121,303.824188 
	C309.455597,301.330627 311.260712,298.061890 313.249390,295.046661 
	C316.321655,290.388428 321.286804,290.412781 326.922424,289.719238 
	C326.253265,292.036102 325.635834,294.173798 324.637482,296.757111 
	C323.029999,298.022064 321.518585,298.611420 320.634155,299.706970 
	C318.572144,302.261169 316.747864,305.017242 314.952789,307.773315 
	C313.852600,309.462524 312.984589,311.302887 312.012299,313.075378 
	C312.012299,313.075378 312.006561,313.007599 311.830444,312.699738 
	C311.142731,313.170563 310.631104,313.949249 310.119476,314.727936 
z"/>
<path fill="#D3D457" opacity="1.000000" stroke="none" 
	d="
M374.989990,162.129974 
	C377.197601,162.129990 379.405243,162.129990 382.043518,162.129990 
	C382.043518,163.836533 382.043518,165.382019 381.987701,167.840271 
	C381.899200,186.822098 381.842133,204.891235 381.881744,222.960144 
	C381.884796,224.355637 382.567932,225.749664 382.934967,227.144363 
	C383.867065,232.200806 384.799164,237.257248 385.834961,242.876389 
	C384.470764,243.697189 382.728638,244.745377 380.056671,246.352997 
	C379.050293,239.350586 377.483002,233.045258 377.359619,226.711792 
	C377.010345,208.777985 377.257416,190.832687 377.258331,172.891907 
	C377.258728,165.603729 377.006378,165.405792 370.008148,166.544479 
	C368.206451,166.837631 366.386932,167.021378 364.578125,166.986359 
	C366.634430,166.392548 368.839172,166.423706 370.696655,165.636002 
	C372.329681,164.943497 373.574005,163.334320 374.989990,162.129974 
z"/>
<path fill="#E1E05A" opacity="1.000000" stroke="none" 
	d="
M238.785385,225.287582 
	C238.737625,223.159958 238.732712,221.030380 238.635300,218.905045 
	C237.905731,202.989380 227.306046,191.991379 211.408829,190.982147 
	C207.323929,190.722794 203.184799,191.317551 198.634888,191.153351 
	C198.796799,189.785507 199.394409,188.784241 199.992004,187.782974 
	C204.012970,187.515854 208.059067,187.446869 212.049591,186.940186 
	C220.232742,185.901169 227.178009,188.446167 233.802597,193.135727 
	C240.784256,198.078033 242.786102,205.368073 243.875381,212.987671 
	C244.390121,216.588379 243.357071,220.410355 242.626541,224.637787 
	C241.060471,224.717682 240.145294,230.315506 238.785385,225.287582 
z"/>
<path fill="#E1E184" opacity="1.000000" stroke="none" 
	d="
M172.815323,172.566925 
	C155.502686,172.462540 138.190048,172.358154 120.486694,172.112000 
	C120.769333,165.937225 126.305092,167.343338 129.268692,167.238434 
	C145.389908,166.667801 161.541855,166.851776 177.681213,166.998352 
	C181.198181,167.030289 182.769501,169.791885 182.962891,173.037643 
	C183.160416,176.352982 182.991898,179.690140 182.565674,183.342102 
	C181.764099,180.669876 181.666428,177.596115 180.886520,174.706497 
	C180.439316,173.049576 179.107239,170.777924 177.766754,170.450989 
	C176.371292,170.110641 174.486267,171.777634 172.815323,172.566925 
z"/>
<path fill="#E1E05A" opacity="1.000000" stroke="none" 
	d="
M267.067444,329.149353 
	C265.852844,329.540924 264.638214,329.932526 263.180298,330.541321 
	C262.495209,330.779327 262.053406,330.800140 260.941589,330.881317 
	C259.587860,331.166229 258.904175,331.390808 258.220490,331.615356 
	C257.032135,331.635559 255.843811,331.655762 254.327042,331.829041 
	C249.854721,331.982117 245.710831,331.982117 240.601013,331.982117 
	C242.583282,326.311951 244.541977,321.480957 245.962936,316.496674 
	C249.870148,302.791565 242.746201,291.914581 228.353149,289.234283 
	C230.846588,288.385834 233.727280,287.486694 236.430435,287.862976 
	C239.743195,288.324158 242.907364,289.852570 246.135788,290.919556 
	C246.135788,290.919556 246.043488,290.952850 246.159790,291.144409 
	C246.561691,291.553528 246.847321,291.771057 247.132950,291.988556 
	C247.132950,291.988556 247.015335,292.000549 247.152740,292.169739 
	C247.574112,292.555206 247.858078,292.771484 248.142044,292.987732 
	C248.142044,292.987732 248.043457,292.955719 248.041489,293.299438 
	C250.726303,299.923248 252.164017,306.345154 250.507645,313.193512 
	C250.302505,314.041656 250.720261,315.040466 250.849365,315.969482 
	C249.772461,319.384888 248.695541,322.800323 247.248505,327.389618 
	C253.132843,326.880737 258.082001,326.452728 263.664948,326.316284 
	C265.221649,327.454987 266.144562,328.302185 267.067444,329.149353 
z"/>
<path fill="#E1E05A" opacity="1.000000" stroke="none" 
	d="
M169.398010,218.190536 
	C168.568573,215.051849 167.803391,211.776337 167.792923,208.498444 
	C167.781830,205.022568 166.533371,203.858200 163.091522,203.950226 
	C155.642883,204.149399 148.185226,204.011551 140.268829,204.011551 
	C140.268829,199.598572 140.268829,195.387482 141.018921,191.038361 
	C142.791412,190.953766 143.813782,191.007202 144.836166,191.060638 
	C144.974396,193.598312 145.112610,196.135971 145.949005,199.139114 
	C154.794083,199.711273 162.940994,199.817963 171.087921,199.924652 
	C171.087921,199.924652 171.043839,199.978119 171.145996,200.180481 
	C171.527527,200.582275 171.806900,200.781677 172.086273,200.981094 
	C172.086273,200.981094 172.023331,200.952637 171.994720,201.271759 
	C172.267197,202.421600 172.568298,203.252304 172.869415,204.083008 
	C172.923279,207.245468 173.339539,210.461563 172.882812,213.548477 
	C172.643387,215.166779 170.873184,216.558578 169.398010,218.190536 
z"/>
<path fill="#E1E05A" opacity="1.000000" stroke="none" 
	d="
M356.313141,226.749512 
	C353.117310,231.235565 348.740082,232.990921 343.339478,232.316498 
	C338.730652,231.740967 335.618195,228.411743 334.848663,223.296799 
	C333.928040,217.177338 335.777618,212.990143 340.631470,210.815979 
	C341.951385,216.264725 338.588104,223.439178 345.068878,226.735687 
	C348.084595,228.269669 352.265045,227.513794 356.094482,227.321686 
	C356.271393,226.847458 356.313141,226.749512 356.313141,226.749512 
z"/>
<path fill="#E1E05A" opacity="1.000000" stroke="none" 
	d="
M204.547699,308.963257 
	C204.196045,311.398560 203.481583,313.854095 202.573914,316.973572 
	C194.023346,310.943970 187.713882,303.911987 182.834366,295.632233 
	C182.295273,294.717499 183.607590,292.711609 184.690155,291.104279 
	C186.161911,291.344086 187.004761,291.691406 187.847610,292.038727 
	C192.303665,297.254211 196.717819,302.506775 201.262909,307.643463 
	C201.912262,308.377350 203.195175,308.550690 204.547699,308.963257 
z"/>
<path fill="#E1E05A" opacity="1.000000" stroke="none" 
	d="
M270.851593,215.011536 
	C269.823181,224.954346 276.110077,228.383667 283.854218,229.978928 
	C279.738678,233.649139 274.845001,233.935440 270.224762,230.666702 
	C265.301697,227.183701 264.490967,222.014084 265.872406,216.296265 
	C266.016418,216.355469 266.020660,216.528946 266.102325,216.650330 
	C266.179565,216.765106 266.379974,216.925568 266.454803,216.894394 
	C267.926666,216.281784 269.388062,215.644119 270.851593,215.011536 
z"/>
<path fill="#E1E05A" opacity="1.000000" stroke="none" 
	d="
M273.075806,186.839478 
	C277.113647,186.893860 281.151489,186.948242 285.737762,187.168610 
	C286.286194,187.334579 286.629028,187.379257 286.629028,187.379257 
	C286.629028,187.379257 286.913025,187.146729 286.913025,187.146729 
	C286.913025,187.146729 287.380402,186.991577 287.934113,186.979614 
	C288.693695,186.956909 288.899536,186.946167 289.105347,186.935410 
	C289.105347,186.935410 289.030029,186.952515 289.119141,187.259811 
	C293.845703,189.693924 298.483154,191.820740 303.120636,193.947556 
	C303.120636,193.947556 303.017853,193.964752 303.157166,194.139099 
	C303.571075,194.539780 303.845642,194.766083 304.120209,194.992386 
	C304.120209,194.992386 304.024048,194.977936 304.084534,195.272369 
	C305.139923,196.362244 306.134766,197.157684 307.129639,197.953125 
	C307.129639,197.953125 307.052002,197.955353 307.046783,198.311981 
	C307.303314,199.782608 307.267456,201.103882 307.875366,201.976837 
	C311.666779,207.421204 311.314545,213.459274 310.189545,219.721420 
	C309.760590,217.875824 309.331635,216.030212 308.864075,213.787842 
	C307.610413,204.447830 302.335297,198.256470 294.973694,193.754120 
	C290.467010,190.997818 285.665100,188.466827 280.025787,190.712158 
	C279.575165,190.736481 279.124512,190.760788 278.197876,190.380035 
	C276.173157,188.929779 274.624481,187.884613 273.075806,186.839478 
z"/>
<path fill="#D3D457" opacity="1.000000" stroke="none" 
	d="
M162.436279,264.160645 
	C162.819672,265.791138 162.291443,267.595734 162.816177,269.009460 
	C165.182892,275.385986 167.847885,281.651855 170.572540,288.241028 
	C170.085648,288.560730 169.431610,288.597015 168.234070,288.401062 
	C166.131805,286.777466 164.573044,285.386139 163.014282,283.994812 
	C163.014282,283.994812 163.001221,283.998108 163.006958,283.689941 
	C162.698944,282.890778 162.385208,282.399719 162.071472,281.908691 
	C162.071472,281.908691 162.001740,281.964508 162.036819,281.584473 
	C160.688553,277.724243 159.154190,274.294373 157.971054,270.747345 
	C157.071060,268.049194 155.566956,267.090149 152.883331,267.960510 
	C154.890320,264.209839 158.134430,263.425812 162.436279,264.160645 
z"/>
<path fill="#E1E05A" opacity="1.000000" stroke="none" 
	d="
M139.460876,246.920471 
	C139.429535,240.949142 139.706985,235.060638 139.923874,229.169907 
	C140.002548,227.032761 139.936508,224.890320 139.936508,221.998001 
	C141.573044,222.307419 142.856796,222.550140 144.511749,222.928207 
	C144.934204,229.358734 145.381409,235.691376 144.791901,241.925995 
	C144.618423,243.760788 141.509384,245.318008 139.460876,246.920471 
z"/>
<path fill="#0F0A06" opacity="1.000000" stroke="none" 
	d="
M341.464294,283.129211 
	C340.138702,279.145508 338.269379,275.229980 337.756836,271.144257 
	C337.553650,269.524628 340.363068,267.527100 341.588287,265.971466 
	C340.472931,263.139954 339.233673,259.993988 338.269196,256.459686 
	C338.879791,256.197815 339.215637,256.324219 339.663879,256.668579 
	C339.988525,257.155731 340.262390,257.325256 340.688904,257.624023 
	C340.963776,258.144318 341.220642,258.339844 341.656799,258.692627 
	C342.142914,259.327332 342.522705,259.708893 342.941833,260.345032 
	C343.215820,260.838928 343.450439,261.078217 343.765381,261.717773 
	C347.477112,269.623291 344.780762,276.411377 341.464294,283.129211 
z"/>
<path fill="#D3D457" opacity="1.000000" stroke="none" 
	d="
M173.461792,260.239655 
	C175.611954,265.653687 177.555359,270.925507 179.063293,276.319092 
	C179.734940,278.721527 179.529678,281.369141 179.722412,283.905457 
	C179.115677,284.001099 178.508926,284.096741 177.902176,284.192383 
	C175.419556,278.275665 172.987000,272.337097 170.420639,266.456909 
	C169.741226,264.900238 168.649811,263.523438 167.373428,262.031372 
	C169.025452,261.381531 171.051605,260.764282 173.461792,260.239655 
z"/>
<path fill="#E1E184" opacity="1.000000" stroke="none" 
	d="
M308.902710,214.184616 
	C309.331635,216.030212 309.760590,217.875824 310.189545,219.721420 
	C311.314545,213.459274 311.666779,207.421204 307.875366,201.976837 
	C307.267456,201.103882 307.303314,199.782608 307.048676,198.273193 
	C313.922180,205.583450 313.774048,214.813416 312.291168,224.090332 
	C311.777252,227.305481 309.723816,230.274551 308.373566,233.356003 
	C307.800812,233.175446 307.228058,232.994873 306.655334,232.814316 
	C307.101715,227.766800 307.548126,222.719299 308.105408,216.944183 
	C308.445099,215.539261 308.673920,214.861938 308.902710,214.184616 
z"/>
<path fill="#E1E184" opacity="1.000000" stroke="none" 
	d="
M187.927490,291.680359 
	C187.004761,291.691406 186.161911,291.344086 184.981659,290.937622 
	C185.733841,288.516937 186.823441,286.155365 188.355820,283.584900 
	C189.874161,281.943359 192.048004,280.321533 191.839279,279.110199 
	C190.817719,273.181915 189.127441,267.370972 187.740829,261.502686 
	C186.756638,257.337463 184.573044,255.890076 180.600418,258.110382 
	C179.861572,258.273285 179.122711,258.436188 178.150803,258.296570 
	C179.385895,254.349243 182.698685,254.335953 185.398148,255.218369 
	C186.977646,255.734650 188.239365,258.237213 188.979263,260.109009 
	C190.852310,264.847504 192.643356,269.657928 193.926575,274.580475 
	C195.687057,281.333862 191.791321,286.374023 187.927490,291.680359 
z"/>
<path fill="#D3D457" opacity="1.000000" stroke="none" 
	d="
M308.864075,213.787842 
	C308.673920,214.861938 308.445099,215.539261 308.156067,216.493454 
	C304.160767,199.970612 296.457336,192.694229 280.391663,190.829803 
	C285.665100,188.466827 290.467010,190.997818 294.973694,193.754120 
	C302.335297,198.256470 307.610413,204.447830 308.864075,213.787842 
z"/>
<path fill="#D3D457" opacity="1.000000" stroke="none" 
	d="
M173.181763,172.696075 
	C174.486267,171.777634 176.371292,170.110641 177.766754,170.450989 
	C179.107239,170.777924 180.439316,173.049576 180.886520,174.706497 
	C181.666428,177.596115 181.764099,180.669876 182.502350,183.798645 
	C182.555771,186.899139 180.333511,187.290222 177.747086,187.318176 
	C177.359924,183.475983 177.127655,179.859436 177.145966,176.244171 
	C177.159042,173.659317 175.965439,172.683380 173.181763,172.696075 
z"/>
<path fill="#0F0A06" opacity="1.000000" stroke="none" 
	d="
M152.530853,268.029358 
	C155.566956,267.090149 157.071060,268.049194 157.971054,270.747345 
	C159.154190,274.294373 160.688553,277.724243 162.080017,281.573242 
	C157.193008,282.515747 155.279083,279.976074 154.945847,275.418732 
	C154.820099,273.698975 154.001694,272.029907 153.499023,270.337738 
	C153.031723,270.363708 152.564423,270.389709 152.097137,270.415680 
	C151.582764,271.844299 151.068405,273.272949 150.456223,274.973297 
	C148.733490,271.934845 148.013138,269.432037 152.530853,268.029358 
z"/>
<path fill="#E1E184" opacity="1.000000" stroke="none" 
	d="
M267.462891,329.156799 
	C266.144562,328.302185 265.221649,327.454987 264.080353,326.370056 
	C271.155640,323.976471 278.443634,321.801056 285.749420,319.687042 
	C286.784973,319.387421 287.906952,319.386475 289.380127,319.295837 
	C282.467010,322.617737 275.162659,325.890991 267.462891,329.156799 
z"/>
<path fill="#CD270D" opacity="1.000000" stroke="none" 
	d="
M117.577568,174.507660 
	C117.782654,174.890549 117.780380,175.609024 117.877182,176.674011 
	C117.904572,199.032806 117.832878,221.045074 117.767715,243.864197 
	C117.745018,245.405289 117.715790,246.139557 117.686562,246.873810 
	C117.568367,236.285858 117.388298,225.698166 117.347557,215.109909 
	C117.295914,201.687912 117.357468,188.265488 117.577568,174.507660 
z"/>
<path fill="#D3D457" opacity="1.000000" stroke="none" 
	d="
M339.551453,256.450623 
	C339.215637,256.324219 338.879791,256.197815 338.274872,256.051086 
	C338.005768,256.030792 337.902832,255.759552 337.543213,255.481216 
	C336.121429,254.820251 335.059235,254.437637 333.997070,254.055023 
	C333.997070,254.055023 333.691284,253.810898 333.351624,253.639832 
	C332.700623,253.265503 332.382446,253.254105 332.057434,253.434586 
	C331.607147,253.327545 331.156860,253.220505 330.029388,253.020752 
	C328.208252,252.625366 327.064301,252.322693 325.920349,252.020020 
	C330.358612,247.732666 339.682892,247.847824 344.054260,252.642548 
	C344.074310,253.041382 343.971680,253.223206 343.601044,253.133881 
	C340.429016,252.133636 337.627594,251.222717 334.826202,250.311798 
	C334.657410,250.645493 334.488617,250.979187 334.319824,251.312881 
	C336.219269,252.869171 338.118713,254.425446 339.901001,256.098480 
	C339.783844,256.215240 339.551453,256.450623 339.551453,256.450623 
z"/>
<path fill="#E1E184" opacity="1.000000" stroke="none" 
	d="
M340.923920,190.562256 
	C336.676666,191.199570 332.429413,191.836868 328.299377,192.456589 
	C329.808563,185.578659 343.654266,184.358047 350.528900,187.615585 
	C348.522125,187.679474 346.738983,187.336060 344.942871,187.085449 
	C342.315308,186.718826 340.738586,187.641113 340.923920,190.562256 
z"/>
<path fill="#E1E05A" opacity="1.000000" stroke="none" 
	d="
M341.300354,190.697235 
	C340.738586,187.641113 342.315308,186.718826 344.942871,187.085449 
	C346.738983,187.336060 348.522125,187.679474 350.735870,187.966827 
	C351.160675,187.952240 351.605804,187.988480 352.001526,188.335876 
	C354.547821,190.417191 356.304413,192.226135 353.578888,194.888565 
	C349.611542,193.536438 345.644165,192.184326 341.300354,190.697235 
z"/>
<path fill="#D3D457" opacity="1.000000" stroke="none" 
	d="
M341.414734,283.457520 
	C344.780762,276.411377 347.477112,269.623291 343.858612,261.623810 
	C343.871490,261.129608 344.059753,260.943512 344.341797,261.166931 
	C345.403534,263.294067 346.145538,265.214386 346.975464,267.095917 
	C347.573242,268.451111 348.288147,269.754639 348.924988,271.460968 
	C347.631348,276.273865 346.363525,280.707031 345.095703,285.140198 
	C345.095703,285.140198 345.078491,285.058685 344.722595,285.027313 
	C343.309479,285.025116 342.252258,285.054291 341.195068,285.083466 
	C341.251740,284.650909 341.308441,284.218353 341.414734,283.457520 
z"/>
<path fill="#E1E184" opacity="1.000000" stroke="none" 
	d="
M345.431152,284.993652 
	C346.363525,280.707031 347.631348,276.273865 349.025665,271.075653 
	C349.402924,268.493896 349.653687,266.677216 349.915253,264.560669 
	C349.664062,263.532104 349.402130,262.803375 348.984680,261.758850 
	C347.209991,258.703094 345.590820,255.963150 343.971680,253.223206 
	C343.971680,253.223206 344.074310,253.041382 344.061157,252.937653 
	C348.685150,254.929932 353.035706,261.764282 351.833038,266.926086 
	C350.408752,273.039062 347.839539,278.885284 345.431152,284.993652 
z"/>
<path fill="#E1E184" opacity="1.000000" stroke="none" 
	d="
M312.368591,313.027222 
	C312.984589,311.302887 313.852600,309.462524 314.952789,307.773315 
	C316.747864,305.017242 318.572144,302.261169 320.634155,299.706970 
	C321.518585,298.611420 323.029999,298.022064 324.621338,297.134705 
	C325.414368,297.188965 325.842529,297.311310 326.270721,297.433624 
	C321.755432,302.615417 317.240143,307.797241 312.368591,313.027222 
z"/>
<path fill="#E1E184" opacity="1.000000" stroke="none" 
	d="
M245.994781,290.583862 
	C242.907364,289.852570 239.743195,288.324158 236.430435,287.862976 
	C233.727280,287.486694 230.846588,288.385834 227.968567,289.074463 
	C224.898575,289.916992 221.904602,290.404480 218.505585,290.917786 
	C220.589798,287.341736 223.847427,285.852753 228.386719,285.871216 
	C234.666382,285.896790 240.731583,285.954193 245.994781,290.583862 
z"/>
<path fill="#E1E184" opacity="1.000000" stroke="none" 
	d="
M382.995117,226.663925 
	C382.567932,225.749664 381.884796,224.355637 381.881744,222.960144 
	C381.842133,204.891235 381.899200,186.822098 381.991943,168.273773 
	C382.393860,169.302475 383.027771,170.809418 383.032959,172.318527 
	C383.094604,190.273315 383.062653,208.228455 382.995117,226.663925 
z"/>
<path fill="#D3D457" opacity="1.000000" stroke="none" 
	d="
M272.895782,186.538391 
	C274.624481,187.884613 276.173157,188.929779 277.874542,190.271942 
	C273.308258,191.004822 268.581146,191.373154 263.878082,191.940964 
	C263.064667,192.039169 262.353333,192.982697 261.406586,193.879700 
	C261.218292,194.223633 261.275879,194.178070 261.275879,194.178070 
	C262.191711,193.051514 262.899719,191.591797 264.064880,190.864929 
	C266.833344,189.137787 269.818298,187.757660 272.895782,186.538391 
z"/>
<path fill="#E1E184" opacity="1.000000" stroke="none" 
	d="
M251.011292,315.627686 
	C250.720261,315.040466 250.302505,314.041656 250.507645,313.193512 
	C252.164017,306.345154 250.726303,299.923248 248.059906,293.250977 
	C254.658752,302.252533 256.008240,307.590363 251.011292,315.627686 
z"/>
<path fill="#E1E184" opacity="1.000000" stroke="none" 
	d="
M238.538116,225.591125 
	C240.145294,230.315506 241.060471,224.717682 242.537506,225.053848 
	C241.155777,230.592804 239.330215,236.134537 233.420929,239.425446 
	C234.898590,235.084778 236.594711,230.489716 238.538116,225.591125 
z"/>
<path fill="#E1E05A" opacity="1.000000" stroke="none" 
	d="
M374.559814,162.065979 
	C373.574005,163.334320 372.329681,164.943497 370.696655,165.636002 
	C368.839172,166.423706 366.634430,166.392548 364.217072,166.904327 
	C363.321686,167.042328 362.789856,166.993317 362.052002,166.590820 
	C361.845978,166.237350 361.931213,166.253998 361.931213,166.253998 
	C362.418640,165.167999 362.758850,163.251480 363.418091,163.134598 
	C366.944702,162.509415 370.550903,162.333328 374.559814,162.065979 
z"/>
<path fill="#E1E184" opacity="1.000000" stroke="none" 
	d="
M353.700653,195.156418 
	C356.304413,192.226135 354.547821,190.417191 352.210632,188.414215 
	C353.827271,188.145172 355.630554,188.145172 357.715881,188.145172 
	C357.715881,184.263794 357.715881,180.360931 357.715881,176.458069 
	C357.171204,176.466568 356.626526,176.475067 356.081848,176.483566 
	C350.844757,182.909424 358.019928,189.790268 355.964630,196.727707 
	C355.124390,196.216461 354.473389,195.820358 353.700653,195.156418 
z"/>
<path fill="#0F0A06" opacity="1.000000" stroke="none" 
	d="
M145.315216,191.056824 
	C143.813782,191.007202 142.791412,190.953766 141.399124,190.792969 
	C148.261444,190.447433 155.492523,190.160553 162.726334,189.989914 
	C166.857086,189.892471 170.992294,189.984421 175.602112,190.015594 
	C172.713074,190.372299 169.352280,190.914597 165.980759,190.992355 
	C159.255035,191.147461 152.523422,191.047577 145.315216,191.056824 
z"/>
<path fill="#0F0A06" opacity="1.000000" stroke="none" 
	d="
M339.044525,291.952606 
	C336.877563,293.347839 334.710571,294.743073 332.543610,296.138336 
	C332.042267,295.804169 331.540955,295.470001 331.039612,295.135834 
	C331.772003,293.826355 332.220490,292.156921 333.308685,291.298492 
	C334.668427,290.225891 336.554474,289.820465 338.543030,289.440002 
	C338.930023,290.486206 338.987274,291.219421 339.044525,291.952606 
z"/>
<path fill="#E1E184" opacity="1.000000" stroke="none" 
	d="
M302.977295,193.625244 
	C298.483154,191.820740 293.845703,189.693924 289.134918,187.224579 
	C293.652374,189.022324 298.243164,191.162613 302.977295,193.625244 
z"/>
<path fill="#D3D457" opacity="1.000000" stroke="none" 
	d="
M270.934143,214.606445 
	C269.388062,215.644119 267.926666,216.281784 266.454803,216.894394 
	C266.379974,216.925568 266.179565,216.765106 266.102325,216.650330 
	C266.020660,216.528946 266.016418,216.355469 266.019226,215.986603 
	C267.961304,213.716370 269.862488,211.664307 272.000793,209.271469 
	C272.237854,208.930710 272.292145,208.850235 272.292145,208.850235 
	C271.867004,210.633942 271.441833,212.417648 270.934143,214.606445 
z"/>
<path fill="#E1E184" opacity="1.000000" stroke="none" 
	d="
M199.611923,187.863022 
	C199.394409,188.784241 198.796799,189.785507 198.173401,191.139343 
	C195.693985,192.343613 193.240372,193.195312 190.419678,194.022385 
	C193.112335,191.979538 196.172089,189.961304 199.611923,187.863022 
z"/>
<path fill="#E1E184" opacity="1.000000" stroke="none" 
	d="
M170.876953,199.536469 
	C162.940994,199.817963 154.794083,199.711273 146.300995,199.366486 
	C154.191879,199.135025 162.428925,199.141647 170.876953,199.536469 
z"/>
<path fill="#0F0A06" opacity="1.000000" stroke="none" 
	d="
M155.005493,284.993896 
	C160.076324,285.722198 159.069916,290.142181 160.396164,293.145172 
	C159.931564,293.405121 159.466965,293.665100 159.002365,293.925079 
	C157.675934,291.199188 156.349487,288.473267 155.011597,285.373688 
	C155.000122,285.000000 155.005493,284.993896 155.005493,284.993896 
z"/>
<path fill="#E1E184" opacity="1.000000" stroke="none" 
	d="
M339.373840,291.849823 
	C338.987274,291.219421 338.930023,290.486206 338.899231,289.373291 
	C338.925659,288.993561 339.204987,288.847534 339.460571,288.475952 
	C340.077576,287.064056 340.438965,286.023804 340.800385,284.983521 
	C340.800385,284.983521 340.990997,285.060242 341.093018,285.071838 
	C342.252258,285.054291 343.309479,285.025116 344.760498,285.044495 
	C343.337311,287.311066 341.520233,289.529053 339.373840,291.849823 
z"/>
<path fill="#0F0A06" opacity="1.000000" stroke="none" 
	d="
M325.566284,252.006287 
	C327.064301,252.322693 328.208252,252.625366 329.682953,253.072479 
	C327.230072,254.041580 324.446442,254.866241 321.662811,255.690903 
	C321.436401,255.163361 321.210022,254.635834 320.983612,254.108307 
	C322.393158,253.403061 323.802673,252.697800 325.566284,252.006287 
z"/>
<path fill="#0F0A06" opacity="1.000000" stroke="none" 
	d="
M316.604736,262.443542 
	C315.609100,261.953094 314.897430,261.287140 314.185791,260.621155 
	C315.464508,259.270111 316.743195,257.919037 318.021912,256.567993 
	C318.360809,256.779388 318.699677,256.990753 319.038574,257.202148 
	C318.321960,258.890778 317.605316,260.579407 316.604736,262.443542 
z"/>
<path fill="#020201" opacity="1.000000" stroke="none" 
	d="
M117.980576,247.088989 
	C117.715790,246.139557 117.745018,245.405289 117.881973,244.319214 
	C119.218269,244.748489 120.446838,245.529602 121.675407,246.310699 
	C120.541801,246.641846 119.408195,246.973007 117.980576,247.088989 
z"/>
<path fill="#0F0A06" opacity="1.000000" stroke="none" 
	d="
M162.996399,284.390137 
	C164.573044,285.386139 166.131805,286.777466 167.903442,288.402710 
	C164.047958,290.495758 162.954361,288.386230 162.996399,284.390137 
z"/>
<path fill="#D3D457" opacity="1.000000" stroke="none" 
	d="
M361.944977,166.661774 
	C361.931213,166.253998 361.845978,166.237350 361.861572,166.215179 
	C360.531952,166.791122 359.186768,167.389267 357.841614,167.987396 
	C358.042786,168.410309 358.243988,168.833221 358.445190,169.256134 
	C359.616364,168.527267 360.787567,167.798401 361.944977,166.661774 
z"/>
<path fill="#0F0A06" opacity="1.000000" stroke="none" 
	d="
M165.867249,294.855347 
	C164.990723,295.208282 163.972443,295.306458 162.954178,295.404633 
	C163.012390,294.771271 163.070602,294.137909 163.128830,293.504547 
	C163.994385,293.869873 164.859955,294.235199 165.867249,294.855347 
z"/>
<path fill="#020201" opacity="1.000000" stroke="none" 
	d="
M131.725494,225.720840 
	C131.220917,224.996887 131.018372,224.262726 130.815826,223.528580 
	C131.423279,223.540863 132.030731,223.553146 132.638184,223.565414 
	C132.434631,224.280487 132.231094,224.995575 131.725494,225.720840 
z"/>
<path fill="#E1E184" opacity="1.000000" stroke="none" 
	d="
M307.082092,197.597198 
	C306.134766,197.157684 305.139923,196.362244 304.093201,195.224533 
	C305.039062,195.668594 306.036835,196.454926 307.082092,197.597198 
z"/>
<path fill="#0F0A06" opacity="1.000000" stroke="none" 
	d="
M340.466675,285.113861 
	C340.438965,286.023804 340.077576,287.064056 339.452759,288.318542 
	C339.503845,287.436554 339.818390,286.340393 340.466675,285.113861 
z"/>
<path fill="#0F0A06" opacity="1.000000" stroke="none" 
	d="
M334.126404,254.403900 
	C335.059235,254.437637 336.121429,254.820251 337.398224,255.476044 
	C336.493805,255.417068 335.374756,255.084915 334.126404,254.403900 
z"/>
<path fill="#D3D457" opacity="1.000000" stroke="none" 
	d="
M261.217499,194.260330 
	C260.576416,194.182358 259.937012,194.059174 259.291809,193.990417 
	C259.270447,193.988129 259.190277,194.537659 259.137543,194.829956 
	C259.837616,194.794312 260.537720,194.758682 261.256836,194.450562 
	C261.275879,194.178070 261.218292,194.223633 261.217499,194.260330 
z"/>
<path fill="#E1E184" opacity="1.000000" stroke="none" 
	d="
M310.464417,314.768982 
	C310.631104,313.949249 311.142731,313.170563 311.864441,312.701355 
	C311.652802,313.610565 311.231049,314.210327 310.464417,314.768982 
z"/>
<path fill="#E1E184" opacity="1.000000" stroke="none" 
	d="
M172.943344,203.721863 
	C172.568298,203.252304 172.267197,202.421600 172.022354,201.251053 
	C172.391495,201.727707 172.704391,202.544205 172.943344,203.721863 
z"/>
<path fill="#E1E184" opacity="1.000000" stroke="none" 
	d="
M177.734802,258.011841 
	C177.310455,258.289703 176.551331,258.682220 175.413452,259.026733 
	C175.823166,258.694672 176.611603,258.410583 177.734802,258.011841 
z"/>
<path fill="#0F0A06" opacity="1.000000" stroke="none" 
	d="
M258.586121,331.698730 
	C258.904175,331.390808 259.587860,331.166229 260.633606,331.012268 
	C260.314331,331.315918 259.633026,331.548981 258.586121,331.698730 
z"/>
<path fill="#0F0A06" opacity="1.000000" stroke="none" 
	d="
M154.997528,285.001617 
	C154.800568,284.791138 154.589279,284.591095 154.424225,284.358215 
	C154.384750,284.302551 154.499344,284.137695 154.543076,284.023041 
	C154.686752,284.216339 154.830429,284.409668 154.989807,284.798431 
	C155.005493,284.993896 155.000122,285.000000 154.997528,285.001617 
z"/>
<path fill="#0F0A06" opacity="1.000000" stroke="none" 
	d="
M162.073944,282.209900 
	C162.385208,282.399719 162.698944,282.890778 163.011200,283.683685 
	C162.698624,283.494080 162.387527,283.002563 162.073944,282.209900 
z"/>
<path fill="#0F0A06" opacity="1.000000" stroke="none" 
	d="
M153.441193,280.834778 
	C153.471634,280.818451 153.410751,280.851135 153.441193,280.834778 
z"/>
<path fill="#0F0A06" opacity="1.000000" stroke="none" 
	d="
M186.006195,312.006500 
	C185.836884,312.328003 185.662170,312.643829 185.487457,312.959625 
	C185.547150,312.714630 185.606842,312.469666 185.827850,312.108795 
	C185.989182,311.992920 186.000778,312.000793 186.006195,312.006500 
z"/>
<path fill="#0F0A06" opacity="1.000000" stroke="none" 
	d="
M182.385773,310.188446 
	C182.353989,310.160339 182.417572,310.216553 182.385773,310.188446 
z"/>
<path fill="#E1E184" opacity="1.000000" stroke="none" 
	d="
M231.459412,240.316498 
	C231.798096,240.592743 232.195511,240.655487 232.627808,240.481018 
	C232.281174,240.196869 231.899643,240.149948 231.459412,240.316498 
z"/>
<path fill="#0F0A06" opacity="1.000000" stroke="none" 
	d="
M329.304138,297.008728 
	C329.408173,296.877716 329.512543,296.863373 329.616913,296.849030 
	C329.512756,296.941162 329.408600,297.033264 329.304138,297.008728 
z"/>
<path fill="#E1E184" opacity="1.000000" stroke="none" 
	d="
M289.010681,186.682205 
	C288.899536,186.946167 288.693695,186.956909 288.179199,186.955872 
	C288.219055,186.772400 288.567535,186.600708 289.010681,186.682205 
z"/>
<path fill="#0F0A06" opacity="1.000000" stroke="none" 
	d="
M332.237427,253.574768 
	C332.382446,253.254105 332.700623,253.265503 333.158447,253.670914 
	C332.992096,253.915833 332.696228,253.863144 332.237427,253.574768 
z"/>
<path fill="#E1E184" opacity="1.000000" stroke="none" 
	d="
M286.714233,187.088486 
	C286.913025,187.146729 286.629028,187.379257 286.629028,187.379257 
	C286.629028,187.379257 286.286194,187.334579 286.202576,187.242584 
	C286.118927,187.150574 286.515411,187.030243 286.714233,187.088486 
z"/>
<path fill="#E1E05A" opacity="1.000000" stroke="none" 
	d="
M356.296509,226.894409 
	C356.321625,226.941345 356.087585,226.846771 356.087585,226.846771 
	C356.087585,226.846771 356.258362,227.007202 356.285767,226.878357 
	C356.313141,226.749512 356.271393,226.847458 356.296509,226.894409 
z"/>
<path fill="#E1E184" opacity="1.000000" stroke="none" 
	d="
M248.053314,292.714661 
	C247.858078,292.771484 247.574112,292.555206 247.147156,292.110901 
	C247.324295,292.069092 247.644440,292.255341 248.053314,292.714661 
z"/>
<path fill="#E1E184" opacity="1.000000" stroke="none" 
	d="
M247.053131,291.711761 
	C246.847321,291.771057 246.561691,291.553528 246.145660,291.097412 
	C246.334610,291.050903 246.653946,291.242920 247.053131,291.711761 
z"/>
<path fill="#E1E184" opacity="1.000000" stroke="none" 
	d="
M304.032257,194.721954 
	C303.845642,194.766083 303.571075,194.539780 303.150238,194.087463 
	C303.317413,194.058151 303.630859,194.254837 304.032257,194.721954 
z"/>
<path fill="#D3D457" opacity="1.000000" stroke="none" 
	d="
M272.247375,208.978302 
	C272.256897,209.025894 272.102753,208.839661 272.102753,208.839661 
	C272.102753,208.839661 272.170746,209.066910 272.231445,208.958572 
	C272.292145,208.850235 272.237854,208.930710 272.247375,208.978302 
z"/>
<path fill="#E1E184" opacity="1.000000" stroke="none" 
	d="
M172.024872,200.707275 
	C171.806900,200.781677 171.527527,200.582275 171.133606,200.148132 
	C171.333862,200.086746 171.648682,200.260101 172.024872,200.707275 
z"/>
<path fill="#E1E05A" opacity="1.000000" stroke="none" 
	d="
M195.997391,218.364166 
	C197.430283,215.061569 198.828400,212.180801 200.226532,209.300018 
	C200.672623,209.516525 201.118713,209.733017 201.564804,209.949524 
	C199.271072,221.200119 203.864975,228.102600 213.927979,229.549377 
	C209.466583,234.696259 200.792862,233.481812 197.610306,226.947678 
	C196.433960,224.532562 196.476166,221.523941 195.997391,218.364166 
z"/>
<path fill="#CD270D" opacity="1.000000" stroke="none" 
	d="
M227.894104,298.108887 
	C225.044022,306.281647 222.162247,314.059967 219.356628,321.865631 
	C218.507599,324.227814 217.225555,325.942169 214.639557,324.401550 
	C212.231750,322.967041 207.565140,322.943756 209.099442,318.302521 
	C210.865036,312.961670 212.843781,307.607452 215.485458,302.662628 
	C218.375610,297.252747 224.092865,295.372223 227.894104,298.108887 
z"/>
<path fill="#CD270D" opacity="1.000000" stroke="none" 
	d="
M233.960892,329.272552 
	C231.426514,329.366974 229.058228,329.538940 226.979401,328.844452 
	C226.025543,328.525787 224.811554,326.221619 225.126877,325.301453 
	C227.866119,317.308044 230.913712,309.419830 233.916718,301.518280 
	C234.130310,300.956268 234.717026,300.536102 235.106796,300.077576 
	C239.776031,302.810608 241.922562,307.353241 240.326859,312.733643 
	C238.685257,318.268799 236.303268,323.584351 233.960892,329.272552 
z"/>
<path fill="#E1E05A" opacity="1.000000" stroke="none" 
	d="
M180.782593,258.436157 
	C184.573044,255.890076 186.756638,257.337463 187.740829,261.502686 
	C189.127441,267.370972 190.817719,273.181915 191.839279,279.110199 
	C192.048004,280.321533 189.874161,281.943359 188.500000,283.257629 
	C188.711853,274.145905 183.916550,266.727570 180.782593,258.436157 
z"/>
<path fill="#D3D457" opacity="1.000000" stroke="none" 
	d="
M342.902466,260.090424 
	C342.522705,259.708893 342.142914,259.327332 341.777466,258.576141 
	C341.791809,258.206482 342.031372,257.971619 342.236938,258.166809 
	C342.685944,258.868164 342.929382,259.374359 343.104309,259.931824 
	C343.035797,259.983093 342.902466,260.090424 342.902466,260.090424 
z"/>
<path fill="#D3D457" opacity="1.000000" stroke="none" 
	d="
M340.597931,257.395111 
	C340.262390,257.325256 339.988525,257.155731 339.663879,256.668579 
	C339.551453,256.450623 339.783844,256.215240 340.092194,256.239075 
	C340.643860,256.468719 340.854401,256.703888 340.923645,257.075104 
	C340.815125,257.181824 340.597931,257.395111 340.597931,257.395111 
z"/>
<path fill="#D3D457" opacity="1.000000" stroke="none" 
	d="
M341.671143,258.322998 
	C341.220642,258.339844 340.963776,258.144318 340.688904,257.624023 
	C340.597931,257.395111 340.815125,257.181824 341.111969,257.219604 
	C341.648315,257.467590 341.855835,257.705658 342.031372,257.971619 
	C342.031372,257.971619 341.791809,258.206482 341.671143,258.322998 
z"/>
<path fill="#D3D457" opacity="1.000000" stroke="none" 
	d="
M343.778259,261.223572 
	C343.450439,261.078217 343.215820,260.838928 342.941833,260.345032 
	C342.902466,260.090424 343.035797,259.983093 343.267548,260.095520 
	C343.711639,260.433716 343.898468,260.678894 344.059753,260.943512 
	C344.059753,260.943512 343.871490,261.129608 343.778259,261.223572 
z"/>
<path fill="#E1E05A" opacity="1.000000" stroke="none" 
	d="
M344.341797,261.166931 
	C343.898468,260.678894 343.711639,260.433716 343.336060,260.044250 
	C342.929382,259.374359 342.685944,258.868164 342.236938,258.166809 
	C341.855835,257.705658 341.648315,257.467590 341.220520,257.112915 
	C340.854401,256.703888 340.643860,256.468719 340.209351,256.122314 
	C338.118713,254.425446 336.219269,252.869171 334.319824,251.312881 
	C334.488617,250.979187 334.657410,250.645493 334.826202,250.311798 
	C337.627594,251.222717 340.429016,252.133636 343.601044,253.133881 
	C345.590820,255.963150 347.209991,258.703094 348.963623,262.060852 
	C349.366882,263.405945 349.635681,264.133240 349.904480,264.860504 
	C349.653687,266.677216 349.402924,268.493896 349.051453,270.695923 
	C348.288147,269.754639 347.573242,268.451111 346.975464,267.095917 
	C346.145538,265.214386 345.403534,263.294067 344.341797,261.166931 
z"/>
<path fill="#D3D457" opacity="1.000000" stroke="none" 
	d="
M349.915222,264.560669 
	C349.635681,264.133240 349.366882,263.405945 349.119141,262.376648 
	C349.402130,262.803375 349.664062,263.532104 349.915222,264.560669 
z"/>
</svg>